<svg width="42" height="42" viewBox="0 0 42 42" fill="none" xmlns="http://www.w3.org/2000/svg">
<path d="M29.4002 3.14998C29.4002 2.8715 29.5108 2.60443 29.7077 2.40751C29.9046 2.2106 30.1717 2.09998 30.4502 2.09998H38.8502C39.1287 2.09998 39.3957 2.2106 39.5927 2.40751C39.7896 2.60443 39.9002 2.8715 39.9002 3.14998V13.65C39.9002 13.9285 39.7896 14.1955 39.5927 14.3924C39.3957 14.5894 39.1287 14.7 38.8502 14.7H35.7002V38.85C35.7002 39.1285 35.5896 39.3955 35.3927 39.5924C35.1957 39.7893 34.9287 39.9 34.6502 39.9C34.3717 39.9 34.1046 39.7893 33.9077 39.5924C33.7108 39.3955 33.6002 39.1285 33.6002 38.85V14.7H30.4502C30.1717 14.7 29.9046 14.5894 29.7077 14.3924C29.5108 14.1955 29.4002 13.9285 29.4002 13.65V3.14998ZM27.3002 6.29998H12.8942C11.6802 6.29974 10.5037 6.7202 9.56488 7.4898C8.62605 8.2594 7.98293 9.33057 7.745 10.521L7.3292 12.6H5.7752C5.35748 12.6 4.95687 12.7659 4.6615 13.0613C4.36613 13.3567 4.2002 13.7573 4.2002 14.175C4.2002 14.5927 4.36613 14.9933 4.6615 15.2887C4.95687 15.584 5.35748 15.75 5.7752 15.75H6.6992L6.4661 16.926C5.81218 17.1172 5.23789 17.5153 4.82936 18.0605C4.42082 18.6057 4.20006 19.2687 4.2002 19.95V30.45C4.2002 31.2854 4.53207 32.0866 5.12281 32.6774C5.71355 33.2681 6.51476 33.6 7.3502 33.6H8.4002V35.7C8.4002 36.2569 8.62145 36.7911 9.01527 37.1849C9.4091 37.5787 9.94324 37.8 10.5002 37.8C11.0572 37.8 11.5913 37.5787 11.9851 37.1849C12.3789 36.7911 12.6002 36.2569 12.6002 35.7V33.6H29.4002V35.7C29.4002 36.2569 29.6214 36.7911 30.0153 37.1849C30.4091 37.5787 30.9432 37.8 31.5002 37.8V31.5H7.3502C7.07172 31.5 6.80465 31.3894 6.60773 31.1924C6.41082 30.9955 6.3002 30.7285 6.3002 30.45V19.95C6.3002 19.6715 6.41082 19.4044 6.60773 19.2075C6.80465 19.0106 7.07172 18.9 7.3502 18.9H31.5002V16.8H8.6312L9.8051 10.9326C9.94777 10.2188 10.3333 9.57638 10.8961 9.11467C11.4588 8.65296 12.1642 8.40041 12.8921 8.39998H27.3002V6.29998ZM31.5002 25.2C31.5002 24.643 31.2789 24.1089 30.8851 23.7151C30.4913 23.3212 29.9572 23.1 29.4002 23.1C28.8432 23.1 28.3091 23.3212 27.9153 23.7151C27.5214 24.1089 27.3002 24.643 27.3002 25.2C27.3002 25.7569 27.5214 26.2911 27.9153 26.6849C28.3091 27.0787 28.8432 27.3 29.4002 27.3C29.9572 27.3 30.4913 27.0787 30.8851 26.6849C31.2789 26.2911 31.5002 25.7569 31.5002 25.2ZM14.7002 25.2C14.7002 24.643 14.4789 24.1089 14.0851 23.7151C13.6913 23.3212 13.1572 23.1 12.6002 23.1C12.0432 23.1 11.5091 23.3212 11.1153 23.7151C10.7214 24.1089 10.5002 24.643 10.5002 25.2C10.5002 25.7569 10.7214 26.2911 11.1153 26.6849C11.5091 27.0787 12.0432 27.3 12.6002 27.3C13.1572 27.3 13.6913 27.0787 14.0851 26.6849C14.4789 26.2911 14.7002 25.7569 14.7002 25.2Z" fill="#FF8036"/>
</svg>
