<svg width="42" height="42" viewBox="0 0 42 42" fill="none" xmlns="http://www.w3.org/2000/svg">
<path d="M10.7133 2.81698L10.7069 3.51695C10.7794 3.51761 10.8524 3.52088 10.9341 3.52768L10.9341 3.52774L10.9425 3.52834C12.1814 3.61643 13.187 4.21526 14.0951 5.35486C15.0152 6.50945 15.7781 8.19724 16.3388 10.2116C17.3708 13.9392 17.6603 18.6085 17.478 22.5841C13.0098 24.1667 7.69594 24.8405 2.20374 21.7136C2.10499 17.9537 2.9063 13.2885 4.46534 9.61698C5.29735 7.66052 6.32495 6.03428 7.44735 4.97167L7.44738 4.97165C8.42596 4.04509 9.41429 3.56899 10.4662 3.52118C10.5432 3.51768 10.6208 3.51623 10.7075 3.51695L10.7133 2.81698ZM10.7133 2.81698C10.8035 2.8178 10.8938 2.8219 10.9922 2.8301L6.9661 4.46334C8.03086 3.45518 9.1711 2.87932 10.4344 2.8219C10.5246 2.8178 10.6148 2.81616 10.7133 2.81698ZM14.6913 26.9949C14.7803 28.1747 14.9287 29.3536 15.0725 30.4967C15.1235 30.9021 15.174 31.3029 15.221 31.6977C15.4028 33.2234 15.5365 34.6775 15.4852 36.068C15.4336 37.445 14.9868 38.2746 14.4159 38.8014C13.8256 39.3385 12.9971 39.6471 11.9973 39.6761H11.9972C9.97896 39.7348 7.57169 38.5638 6.41294 36.5922L6.41262 36.5917C4.81135 33.8728 4.26578 29.842 4.2458 25.782C7.90515 27.0165 11.4586 26.9823 14.6495 26.3556C14.6596 26.5669 14.6731 26.7798 14.6913 26.9949ZM14.6913 26.9949C14.6914 26.996 14.6915 26.9971 14.6916 26.9982L15.3891 26.9391L14.691 26.9917C14.6911 26.9928 14.6912 26.9938 14.6913 26.9949ZM35.5804 36.5924L35.5816 36.5903C37.1905 33.8732 37.7253 29.8455 37.7515 25.7838C34.0865 27.0239 30.5358 26.9831 27.3454 26.3547C27.3335 26.5661 27.3185 26.7773 27.3005 26.9871C27.2119 28.1647 27.0655 29.3405 26.9236 30.4804C26.8725 30.8906 26.822 31.2963 26.775 31.6957C26.5953 33.2222 26.4636 34.6766 26.5147 36.0676L35.5804 36.5924ZM35.5804 36.5924C34.4225 38.5638 32.021 39.7348 29.9946 39.6761C29.0004 39.6471 28.1656 39.3372 27.5856 38.8028C27.014 38.2761 26.5664 37.4463 26.5148 36.068L35.5804 36.5924ZM31.2931 3.51779L31.2984 3.5177C31.3606 3.51666 31.4197 3.51716 31.4797 3.51872L31.5338 3.52118C32.5856 3.56899 33.5741 4.04502 34.5545 4.97186C35.6745 6.03462 36.7019 7.66074 37.5328 9.61646C39.0867 13.2886 39.8892 17.9541 39.7883 21.7135C34.2981 24.8403 28.9902 24.1669 24.5147 22.5841C24.3397 18.6078 24.6293 13.9389 25.6612 10.2116C26.2226 8.19477 26.9773 6.50856 27.9031 5.35622L27.9049 5.35404C28.813 4.21444 29.8186 3.61561 31.0575 3.52752L31.0586 3.52744C31.1345 3.52192 31.2181 3.51845 31.2931 3.51779Z" stroke="#FF8036" stroke-width="1.4"/>
</svg>
