<svg width="42" height="42" viewBox="0 0 42 42" fill="none" xmlns="http://www.w3.org/2000/svg">
<path d="M3.5 29.75C3.5 33.1625 3.549 36.75 7.7 36.75H27.3C31.451 36.75 31.5 33.1625 31.5 29.75C31.5 26.037 30.025 22.476 27.3995 19.8505C24.774 17.225 21.213 15.75 17.5 15.75C13.787 15.75 10.226 17.225 7.60051 19.8505C4.975 22.476 3.5 26.037 3.5 29.75Z" stroke="#FF8036" stroke-width="1.5" stroke-linecap="round" stroke-linejoin="round"/>
<path d="M14 15.75V14C14 13.0717 14.3687 12.1815 15.0251 11.5251C15.6815 10.8687 16.5717 10.5 17.5 10.5C18.4283 10.5 19.3185 10.8687 19.9749 11.5251C20.6313 12.1815 21 13.0717 21 14V15.75M31.5 29.75C32.4283 29.75 33.3185 29.3813 33.9749 28.7249C34.6313 28.0685 35 27.1783 35 26.25V22.75C35 21.8217 35.3687 20.9315 36.0251 20.2751C36.6815 19.6187 37.5717 19.25 38.5 19.25" stroke="#FF8036" stroke-width="1.5" stroke-linecap="round" stroke-linejoin="round"/>
<path d="M28 20.125V15.75C28 12.9652 26.8938 10.2945 24.9246 8.32538C22.9555 6.35625 20.2848 5.25 17.5 5.25C14.7152 5.25 12.0445 6.35625 10.0754 8.32538C8.10625 10.2945 7 12.9652 7 15.75V20.125M3.5 29.75H21" stroke="#FF8036" stroke-width="1.5" stroke-linecap="round" stroke-linejoin="round"/>
</svg>
