<svg width="46" height="46" viewBox="0 0 46 46" fill="none" xmlns="http://www.w3.org/2000/svg">
<path d="M12.6808 40.25C11.8222 40.25 11.0913 39.9484 10.4882 39.3453C9.88505 38.7422 9.5835 38.012 9.5835 37.1546V8.84542C9.5835 7.98931 9.88505 7.25906 10.4882 6.65467C11.0913 6.05156 11.8222 5.75 12.6808 5.75H33.3214C34.1775 5.75 34.9078 6.05156 35.5122 6.65467C36.1153 7.25778 36.4168 7.98867 36.4168 8.84733V37.1546C36.4168 38.0107 36.1153 38.7409 35.5122 39.3453C34.9091 39.9484 34.1788 40.25 33.3214 40.25H12.6808ZM12.6808 38.3333H33.3214C33.6153 38.3333 33.8856 38.2107 34.1322 37.9653C34.3788 37.72 34.5014 37.4491 34.5002 37.1527V8.84733C34.5002 8.55217 34.3775 8.28128 34.1322 8.03467C33.8868 7.78806 33.6159 7.66539 33.3195 7.66667H12.6808C12.3857 7.66667 12.1148 7.78933 11.8682 8.03467C11.6216 8.28 11.4989 8.55025 11.5002 8.84542V37.1546C11.5002 37.4485 11.6228 37.7187 11.8682 37.9653C12.1135 38.2119 12.3837 38.3346 12.6789 38.3333M23.0002 34.9408C25.2337 34.9408 27.144 34.1486 28.731 32.5642C30.3154 30.9772 31.1077 29.0669 31.1077 26.8333C31.1077 24.5998 30.3154 22.6895 28.731 21.1025C27.1427 19.5181 25.2324 18.7258 23.0002 18.7258C20.7679 18.7258 18.8576 19.5181 17.2693 21.1025C15.6849 22.6908 14.8927 24.6011 14.8927 26.8333C14.8927 29.0656 15.6849 30.9759 17.2693 32.5642C18.8563 34.1486 20.7666 34.9408 23.0002 34.9408ZM23.0002 33.1583C22.1696 33.1583 21.3691 33.0005 20.5986 32.6849C19.8281 32.3693 19.1515 31.9202 18.5688 31.3375L27.5043 22.4039C28.087 22.9853 28.5361 23.6612 28.8517 24.4317C29.1674 25.2022 29.3252 26.0028 29.3252 26.8333C29.3252 28.5903 28.7106 30.084 27.4813 31.3145C26.2521 32.545 24.7584 33.1596 23.0002 33.1583ZM15.3335 13.4167C15.8766 13.4167 16.3321 13.2327 16.7001 12.8647C17.0681 12.4967 17.2514 12.0418 17.2502 11.5C17.2489 10.9582 17.0649 10.5033 16.6982 10.1353C16.3314 9.76733 15.8766 9.58333 15.3335 9.58333C14.7904 9.58333 14.3356 9.76733 13.9688 10.1353C13.6021 10.5033 13.4181 10.9582 13.4168 11.5C13.4156 12.0418 13.5996 12.4973 13.9688 12.8666C14.3381 13.2359 14.793 13.4192 15.3335 13.4167ZM21.0835 13.4167C21.6266 13.4167 22.0821 13.2327 22.4501 12.8647C22.8181 12.4967 23.0014 12.0418 23.0002 11.5C22.9989 10.9582 22.8149 10.5033 22.4482 10.1353C22.0814 9.76733 21.6266 9.58333 21.0835 9.58333C20.5404 9.58333 20.0856 9.76733 19.7188 10.1353C19.3521 10.5033 19.1681 10.9582 19.1668 11.5C19.1656 12.0418 19.3496 12.4973 19.7188 12.8666C20.0881 13.2359 20.543 13.4192 21.0835 13.4167Z" fill="#FF8036"/>
</svg>
