<svg width="42" height="42" viewBox="0 0 42 42" fill="none" xmlns="http://www.w3.org/2000/svg">
<path d="M20.9512 35.4375H7.82623M20.9512 35.4375V38.0625C20.9512 38.7587 20.6747 39.4264 20.1824 39.9187C19.6901 40.4109 19.0224 40.6875 18.3262 40.6875H10.4512C9.75504 40.6875 9.08736 40.4109 8.59508 39.9187C8.10279 39.4264 7.82623 38.7587 7.82623 38.0625V35.4375M20.9512 35.4375L25.7305 4.3365C25.788 3.96252 25.764 3.58054 25.6601 3.21671C25.5562 2.85288 25.3749 2.51581 25.1285 2.2286C24.8822 1.94139 24.5767 1.71083 24.233 1.55271C23.8892 1.39458 23.5154 1.31264 23.137 1.3125H5.63698C5.25846 1.31239 4.8844 1.39415 4.54044 1.55216C4.19648 1.71017 3.89075 1.9407 3.64424 2.22794C3.39773 2.51518 3.21625 2.85234 3.11225 3.21629C3.00825 3.58024 2.9842 3.96238 3.04173 4.3365L7.82623 35.4375M35.4902 40.6875V21.4375L38.9902 16.1875V2.1875M31.9902 3.9375H38.9902M31.9902 9.1875H38.9902M31.9902 14.4375H38.9902M14.4902 10.9375V21.4375M9.24023 16.1875H19.7402" stroke="#FF8036" stroke-width="1.5" stroke-linecap="round" stroke-linejoin="round"/>
</svg>
