<svg width="16" height="16" viewBox="0 0 16 16" fill="none" xmlns="http://www.w3.org/2000/svg">
<g clip-path="url(#clip0_2333_2633)">
<path d="M11.4676 4.02009C10.9842 3.70676 10.5042 3.49676 9.95756 3.65009C9.7009 3.72009 9.46756 3.87343 9.22423 3.98676C9.17756 4.01009 9.13756 4.04343 9.08756 4.06343C8.9609 4.11009 8.8509 4.08009 8.77756 3.96343C8.7109 3.86009 8.7309 3.71343 8.83756 3.64343C9.30756 3.34009 9.79423 3.07676 10.3842 3.10343C10.7642 3.12009 11.1076 3.23009 11.4309 3.41676C12.4509 4.00676 13.4776 4.59009 14.4976 5.18009C14.7576 5.33009 14.9209 5.55676 14.9409 5.85676C14.9709 6.33009 14.9942 6.80343 14.9909 7.27343C14.9909 7.60676 14.8209 7.86676 14.5309 8.04009C14.4276 8.10009 14.3242 8.16009 14.2209 8.21676C14.0676 8.30009 13.9276 8.27009 13.8509 8.14343C13.7742 8.01009 13.8209 7.87343 13.9776 7.78009C14.0476 7.73676 14.1176 7.69009 14.1942 7.66009C14.4242 7.56343 14.5009 7.38009 14.4942 7.14676C14.4942 7.05343 14.4942 6.96343 14.4942 6.84343C14.4176 6.88343 14.3676 6.90676 14.3209 6.93343C11.8609 8.35343 9.4009 9.77343 6.9409 11.1968C6.6109 11.3868 6.26756 11.5401 5.88756 11.6034C5.8509 11.6101 5.79756 11.6701 5.79423 11.7068C5.78423 11.9101 5.7909 12.1101 5.7909 12.3601C5.95423 12.2868 6.0809 12.2401 6.2009 12.1734C7.60423 11.3834 9.00423 10.5901 10.4042 9.79676C11.2709 9.30676 12.1409 8.81343 13.0076 8.32343C13.0209 8.31676 13.0342 8.30676 13.0476 8.30009C13.2109 8.21343 13.3509 8.23676 13.4309 8.37009C13.5109 8.50343 13.4642 8.63676 13.3009 8.73343C13.0309 8.89009 12.7609 9.04343 12.4876 9.19676C10.4909 10.3268 8.4909 11.4534 6.49423 12.5901C5.88423 12.9368 5.30423 12.9401 4.69756 12.5834C3.66423 11.9734 2.6209 11.3834 1.57756 10.7901C1.2209 10.5868 1.04423 10.2968 1.05423 9.88676C1.0609 9.67343 1.0609 9.46009 1.05423 9.24676C1.05423 9.14343 1.0409 9.04009 1.01756 8.94009C0.917563 8.50009 1.09423 8.10009 1.5109 7.86009C2.45423 7.31343 3.4009 6.77009 4.34423 6.22676C5.52423 5.54676 6.7009 4.86676 7.8809 4.18676C7.9109 4.17009 7.94423 4.15009 7.97756 4.13343C8.1409 4.04343 8.2809 4.06676 8.3609 4.19676C8.4409 4.33343 8.39423 4.47009 8.22423 4.57009C7.93423 4.74009 7.6409 4.91009 7.34756 5.07676C5.49756 6.14343 3.64756 7.20676 1.8009 8.27343C1.3909 8.51009 1.39423 8.92676 1.8009 9.16343C1.93423 9.24009 2.07756 9.31009 2.20423 9.40009C2.32756 9.49009 2.42423 9.47676 2.5309 9.38343C2.77756 9.16676 3.04423 8.97343 3.2709 8.74009C3.98423 7.99676 4.8309 7.49676 5.82423 7.22676C6.60756 7.01343 7.3109 6.63343 7.86423 6.04343C8.66756 5.18676 9.6209 4.61343 10.7442 4.29676C10.9809 4.23009 11.2076 4.12009 11.4642 4.02009H11.4676ZM2.88756 9.79343C3.33756 10.0568 3.8009 10.3301 4.2709 10.5968C4.3109 10.6201 4.39756 10.6101 4.4309 10.5834C4.75423 10.3034 5.07423 10.0234 5.38423 9.73343C5.98423 9.17009 6.66423 8.73343 7.4609 8.51676C8.48756 8.23676 9.36756 7.73343 10.0776 6.94343C10.1476 6.86676 10.2242 6.79343 10.3009 6.72676C10.9642 6.15676 11.7309 5.77676 12.5642 5.51676C12.8609 5.42676 13.1442 5.29676 13.4676 5.17343C12.9609 4.88343 12.5009 4.61343 12.0342 4.35343C11.9942 4.33009 11.9176 4.34009 11.8709 4.36009C11.5109 4.50676 11.1642 4.69009 10.7942 4.80343C9.8109 5.10343 8.9709 5.60676 8.26423 6.35676C7.63423 7.02343 6.85423 7.46676 5.96756 7.70676C5.16756 7.92343 4.46423 8.30343 3.8609 8.86343C3.53423 9.16676 3.21756 9.48009 2.88756 9.79676V9.79343ZM4.8309 10.9101V10.9701C5.01423 11.0234 5.19423 11.1068 5.38423 11.1301C5.81756 11.1834 6.21423 11.0434 6.58756 10.8268C8.20756 9.89343 9.82423 8.95676 11.4442 8.02343C12.3609 7.49343 13.2709 6.95343 14.1976 6.44009C14.5276 6.25676 14.5509 5.70343 14.1842 5.58009C14.1409 5.56676 14.0976 5.54009 14.0609 5.51343C13.9909 5.46009 13.9309 5.47343 13.8509 5.50676C13.5009 5.66343 13.1576 5.84343 12.7942 5.95676C11.7442 6.28343 10.8409 6.82009 10.0809 7.62676C9.49756 8.24676 8.7609 8.65009 7.9409 8.88009C7.3909 9.03343 6.8509 9.22343 6.4009 9.56676C5.85423 9.98676 5.3509 10.4601 4.82756 10.9068L4.8309 10.9101ZM1.5609 9.60009C1.5609 9.72676 1.5609 9.82676 1.5609 9.92343C1.55423 10.1068 1.6309 10.2368 1.79423 10.3301C2.87756 10.9501 3.9609 11.5734 5.04756 12.1968C5.12756 12.2434 5.21423 12.2768 5.29756 12.3168V11.6668C5.09423 11.5901 4.9009 11.5401 4.7309 11.4468C4.1309 11.1068 3.53756 10.7534 2.94423 10.4068C2.49423 10.1434 2.0409 9.88009 1.56423 9.60343L1.5609 9.60009Z" fill="#FF8036"/>
</g>
<defs>
<clipPath id="clip0_2333_2633">
<rect width="16" height="16" fill="white"/>
</clipPath>
</defs>
</svg>
