<svg width="16" height="16" viewBox="0 0 16 16" fill="none" xmlns="http://www.w3.org/2000/svg">
<path d="M12.375 5.5C12.375 5.12916 12.265 4.76665 12.059 4.45831C11.853 4.14996 11.5601 3.90964 11.2175 3.76773C10.8749 3.62581 10.4979 3.58868 10.1342 3.66103C9.77049 3.73337 9.4364 3.91195 9.17417 4.17417C8.91195 4.4364 8.73338 4.77049 8.66103 5.13421C8.58868 5.49792 8.62581 5.87492 8.76773 6.21753C8.90964 6.56014 9.14996 6.85298 9.45831 7.05901C9.76665 7.26503 10.1292 7.375 10.5 7.375C10.9973 7.375 11.4742 7.17746 11.8258 6.82583C12.1775 6.47419 12.375 5.99728 12.375 5.5ZM10.5 6.625C10.2775 6.625 10.06 6.55902 9.87498 6.4354C9.68998 6.31179 9.54578 6.13609 9.46064 5.93052C9.37549 5.72495 9.35321 5.49875 9.39662 5.28052C9.44003 5.06229 9.54717 4.86184 9.7045 4.7045C9.86184 4.54717 10.0623 4.44002 10.2805 4.39662C10.4988 4.35321 10.725 4.37549 10.9305 4.46064C11.1361 4.54578 11.3118 4.68998 11.4354 4.87498C11.559 5.05999 11.625 5.2775 11.625 5.5C11.625 5.79837 11.5065 6.08452 11.2955 6.2955C11.0845 6.50647 10.7984 6.625 10.5 6.625ZM10.1781 13.375C10.3461 13.3749 10.5105 13.3265 10.6517 13.2355C10.7929 13.1445 10.9049 13.0148 10.9744 12.8619L12.9619 8.49063C13.5778 7.98318 14.0219 7.29797 14.2338 6.52859C14.4456 5.75922 14.4147 4.94321 14.1454 4.19205C13.876 3.44088 13.3813 2.79119 12.7289 2.33173C12.0764 1.87228 11.298 1.62546 10.5 1.625C10.4791 1.62508 10.4582 1.62675 10.4375 1.63L1.85625 3.0625C1.65224 3.09648 1.46685 3.20162 1.33299 3.35928C1.19913 3.51695 1.12544 3.71693 1.125 3.92375V7.07625C1.12544 7.28307 1.19913 7.48306 1.33299 7.64072C1.46685 7.79838 1.65224 7.90352 1.85625 7.9375L8.125 8.98438V12.5C8.125 12.7321 8.21719 12.9546 8.38128 13.1187C8.54538 13.2828 8.76794 13.375 9 13.375H9.125V13.5C9.125 14.1299 9.37522 14.734 9.82062 15.1794C10.266 15.6248 10.8701 15.875 11.5 15.875H12.5C12.5995 15.875 12.6948 15.8355 12.7652 15.7652C12.8355 15.6948 12.875 15.5995 12.875 15.5C12.875 15.4005 12.8355 15.3052 12.7652 15.2348C12.6948 15.1645 12.5995 15.125 12.5 15.125H11.5C11.069 15.125 10.6557 14.9538 10.351 14.649C10.0462 14.3443 9.875 13.931 9.875 13.5V13.375H10.1781ZM1.875 7.07625V3.92375C1.87459 3.89388 1.88489 3.86485 1.90404 3.84192C1.92319 3.81899 1.94991 3.80368 1.97938 3.79875L10.53 2.375C11.3588 2.375 12.1537 2.70424 12.7397 3.29029C13.3258 3.87634 13.655 4.6712 13.655 5.5C13.655 6.3288 13.3258 7.12366 12.7397 7.70971C12.1537 8.29576 11.3588 8.625 10.53 8.625L1.97938 7.2C1.95013 7.19511 1.92357 7.17997 1.90445 7.1573C1.88533 7.13463 1.87489 7.10591 1.875 7.07625ZM8.875 12.5V9.10938L10.4375 9.37C10.4582 9.37325 10.4791 9.37492 10.5 9.375C10.9593 9.37523 11.415 9.29354 11.8456 9.13375L10.2919 12.5519C10.2819 12.5737 10.2659 12.5922 10.2457 12.6051C10.2256 12.6181 10.2021 12.625 10.1781 12.625H9C8.96685 12.625 8.93505 12.6118 8.91161 12.5884C8.88817 12.5649 8.875 12.5332 8.875 12.5Z" fill="#FF8036"/>
</svg>
