<svg width="42" height="42" viewBox="0 0 42 42" fill="none" xmlns="http://www.w3.org/2000/svg">
<path d="M7.89242 18.6445L4.35742 12.5405L13.4854 7.30273H14.6054C15.0954 8.7704 15.88 9.96215 16.9592 10.878C18.0383 11.7927 19.3853 12.25 20.9999 12.25C22.6146 12.25 23.9621 11.7927 25.0424 10.878C26.1204 9.96215 26.9044 8.7704 27.3944 7.30273H28.5144L37.5969 12.5842L34.1092 18.6445L29.7499 16.2452V28.5477L28.5757 29.575C28.5103 29.6333 28.4269 29.6893 28.3254 29.743C28.2251 29.7967 28.1166 29.8416 27.9999 29.8777V13.2562L33.4687 16.275L35.2187 13.2125L28.5249 9.31873C27.8249 10.7479 26.8023 11.8854 25.4572 12.7312C24.112 13.5771 22.6263 14 20.9999 14C19.3736 14 17.8878 13.5771 16.5427 12.7312C15.1975 11.8854 14.1749 10.7479 13.4749 9.31873L6.73742 13.2125L8.53117 16.275L13.9999 13.2562V22.9862C13.7013 23.0212 13.4061 23.0539 13.1144 23.0842C12.8228 23.1146 12.5346 23.1793 12.2499 23.2785V16.2435L7.89242 18.6445ZM8.23892 31.8202L7.10667 30.4972L10.2409 27.832C10.8441 27.3163 11.5313 26.922 12.3024 26.649C13.0736 26.376 13.8582 26.2395 14.6562 26.2395C15.4542 26.2395 16.2318 26.376 16.9889 26.649C17.7461 26.922 18.4257 27.3163 19.0277 27.832L24.1027 32.1632C24.5425 32.5447 25.0535 32.8271 25.6357 33.0102C26.2178 33.1934 26.8018 33.2844 27.3874 33.2832C27.9801 33.2832 28.5582 33.194 29.1217 33.0155C29.6863 32.8358 30.1886 32.5517 30.6284 32.1632L33.7609 29.4542L34.8914 30.8192L31.7589 33.4862C31.1558 34.0019 30.4762 34.3887 29.7202 34.6465C28.963 34.9043 28.1854 35.0332 27.3874 35.0332C26.5894 35.0332 25.8048 34.9043 25.0337 34.6465C24.2637 34.3887 23.5765 34.0019 22.9722 33.4862L17.8972 29.155C17.4573 28.7735 16.9557 28.4912 16.3922 28.308C15.8275 28.1248 15.2488 28.0332 14.6562 28.0332C14.0705 28.0332 13.4866 28.1248 12.9044 28.308C12.3223 28.4912 11.8113 28.7735 11.3714 29.155L8.23892 31.8202Z" fill="#FF8036"/>
</svg>
