<svg width="42" height="42" viewBox="0 0 42 42" fill="none" xmlns="http://www.w3.org/2000/svg">
<path d="M9.80681 4.19999C8.4964 4.19999 7.33931 5.11979 7.0978 6.44279C6.787 8.16059 6.2998 11.2182 6.2998 13.65C6.2998 16.2351 7.6354 18.5073 9.6493 19.8156C10.2184 20.1873 10.4998 20.6661 10.4998 21.0756V21.9366C10.4998 21.9744 10.4977 22.0122 10.4935 22.05C10.4368 22.596 10.1764 25.0509 9.93071 27.5751C9.68921 30.0636 9.4498 32.7201 9.4498 33.6C9.4498 34.7139 9.8923 35.7822 10.68 36.5698C11.4676 37.3575 12.5359 37.8 13.6498 37.8C14.7637 37.8 15.832 37.3575 16.6197 36.5698C17.4073 35.7822 17.8498 34.7139 17.8498 33.6C17.8498 32.718 17.6104 30.0636 17.3689 27.5751C17.1894 25.7333 17.0018 23.8923 16.8061 22.0521L16.7998 21.9366V21.0756C16.7998 20.664 17.0812 20.1852 17.6503 19.8156C18.6784 19.1486 19.5233 18.2351 20.1083 17.1583C20.6933 16.0815 20.9998 14.8755 20.9998 13.65C20.9998 11.2182 20.5126 8.16059 20.2018 6.44279C20.0851 5.81056 19.7497 5.23951 19.2545 4.82952C18.7593 4.41952 18.1357 4.19669 17.4928 4.19999C16.7788 4.19999 16.1278 4.46669 15.6364 4.90559C15.0749 4.4492 14.3734 4.20004 13.6498 4.19999C12.8959 4.19999 12.205 4.46459 11.6632 4.90559C11.1533 4.44967 10.4908 4.19836 9.80681 4.19999ZM12.5998 7.34999C12.5998 7.07151 12.7104 6.80444 12.9073 6.60753C13.1043 6.41061 13.3713 6.29999 13.6498 6.29999C13.9283 6.29999 14.1954 6.41061 14.3923 6.60753C14.5892 6.80444 14.6998 7.07151 14.6998 7.34999V13.65C14.6998 13.9285 14.8104 14.1955 15.0073 14.3924C15.2043 14.5894 15.4713 14.7 15.7498 14.7C16.0283 14.7 16.2954 14.5894 16.4923 14.3924C16.6892 14.1955 16.7998 13.9285 16.7998 13.65V6.99299C16.7998 6.90198 16.8177 6.81187 16.8526 6.72779C16.8874 6.64371 16.9384 6.56731 17.0028 6.50296C17.0671 6.43861 17.1435 6.38757 17.2276 6.35274C17.3117 6.31791 17.4018 6.29999 17.4928 6.29999C17.8225 6.29999 18.0808 6.52679 18.1354 6.81869C18.4441 8.52599 18.8998 11.4219 18.8998 13.65C18.8999 14.5258 18.6809 15.3877 18.2628 16.1572C17.8447 16.9267 17.2407 17.5794 16.5058 18.0558C15.5839 18.6543 14.6998 19.7064 14.6998 21.0756V21.9366C14.6998 22.0486 14.7054 22.1606 14.7166 22.2726C14.7754 22.8144 15.0337 25.263 15.2794 27.7788C15.5272 30.3303 15.7498 32.8503 15.7498 33.6C15.7498 34.1569 15.5286 34.6911 15.1347 35.0849C14.7409 35.4787 14.2068 35.7 13.6498 35.7C13.0929 35.7 12.5587 35.4787 12.1649 35.0849C11.7711 34.6911 11.5498 34.1569 11.5498 33.6C11.5498 32.8503 11.7724 30.3303 12.0202 27.7788C12.2659 25.263 12.5242 22.8144 12.583 22.2726C12.5942 22.1606 12.5998 22.0486 12.5998 21.9366V21.0756C12.5998 19.7064 11.7157 18.6543 10.7938 18.0558C10.059 17.5794 9.45496 16.9267 9.03683 16.1572C8.61869 15.3877 8.3997 14.5258 8.3998 13.65C8.3998 11.424 8.8555 8.52599 9.1642 6.81869C9.19297 6.66995 9.27352 6.53622 9.39155 6.44126C9.50959 6.34629 9.65746 6.29624 9.8089 6.29999C9.99234 6.30054 10.1681 6.3738 10.2976 6.5037C10.4271 6.63361 10.4998 6.80956 10.4998 6.99299V13.65C10.4998 13.9285 10.6104 14.1955 10.8073 14.3924C11.0043 14.5894 11.2713 14.7 11.5498 14.7C11.8283 14.7 12.0954 14.5894 12.2923 14.3924C12.4892 14.1955 12.5998 13.9285 12.5998 13.65V7.34999ZM23.0998 13.65C23.0998 11.1437 24.0954 8.74005 25.8676 6.96783C27.6399 5.19561 30.0435 4.19999 32.5498 4.19999C32.8283 4.19999 33.0954 4.31061 33.2923 4.50753C33.4892 4.70444 33.5998 4.97151 33.5998 5.24999V19.9038L33.6418 20.3742C33.8055 22.261 33.9651 24.1482 34.1206 26.0358C34.381 29.2005 34.6498 32.6739 34.6498 33.6C34.6498 34.7139 34.2073 35.7822 33.4197 36.5698C32.632 37.3575 31.5637 37.8 30.4498 37.8C29.3359 37.8 28.2676 37.3575 27.48 36.5698C26.6923 35.7822 26.2498 34.7139 26.2498 33.6C26.2498 32.676 26.5186 29.2005 26.779 26.0358C26.9092 24.4377 27.0415 22.8921 27.1402 21.7476L27.2032 21H26.2498C25.4144 21 24.6132 20.6681 24.0224 20.0774C23.4317 19.4866 23.0998 18.6854 23.0998 17.85V13.65ZM29.3956 20.0424L29.3515 20.5569L29.2318 21.9282C29.1331 23.0706 29.0008 24.612 28.8706 26.208C28.606 29.4357 28.3498 32.7852 28.3498 33.6C28.3498 34.1569 28.5711 34.6911 28.9649 35.0849C29.3587 35.4787 29.8929 35.7 30.4498 35.7C31.0068 35.7 31.5409 35.4787 31.9347 35.0849C32.3286 34.6911 32.5498 34.1569 32.5498 33.6C32.5498 32.7852 32.2936 29.4357 32.029 26.208C31.8732 24.3239 31.7129 22.4402 31.5481 20.5569L31.504 20.0445V20.0424L31.4998 19.95V6.37349C29.7502 6.62602 28.1502 7.50067 26.9931 8.83711C25.836 10.1735 25.1994 11.8822 25.1998 13.65V17.85C25.1998 18.1285 25.3104 18.3955 25.5073 18.5925C25.7043 18.7894 25.9713 18.9 26.2498 18.9H28.3498C28.4955 18.9 28.6395 18.9303 28.7729 18.989C28.9062 19.0477 29.0258 19.1335 29.1242 19.241C29.2225 19.3484 29.2974 19.4752 29.3442 19.6131C29.3909 19.7511 29.4084 19.8973 29.3956 20.0424Z" fill="#FF8036"/>
</svg>
