<svg width="42" height="42" viewBox="0 0 42 42" fill="none" xmlns="http://www.w3.org/2000/svg">
<path d="M4.96739 33C4.6921 33 4.46204 32.9059 4.27723 32.7177C4.09241 32.5308 4 32.2982 4 32.0198C4 31.7401 4.09241 31.5068 4.27723 31.3199C4.46204 31.1317 4.69274 31.0376 4.96932 31.0376H37.0307C37.3073 31.0376 37.538 31.1317 37.7228 31.3199C37.9076 31.5068 38 31.7401 38 32.0198C38 32.2982 37.9076 32.5308 37.7228 32.7177C37.538 32.9059 37.3073 33 37.0307 33H4.96739ZM5.49082 28.3243V27.8734C5.49082 24.0179 6.78971 20.6831 9.3875 17.8692C11.9879 15.058 15.2125 13.3785 19.0614 12.8309V11.9624C19.0614 11.437 19.2546 10.9789 19.641 10.5881C20.0274 10.196 20.4804 10 21 10C21.5196 10 21.9726 10.196 22.359 10.5881C22.7454 10.9802 22.9386 11.4377 22.9386 11.9604V12.8289C26.7966 13.3779 30.0225 15.058 32.6164 17.8692C35.2103 20.6805 36.5079 24.0153 36.5092 27.8734V28.3243H5.49082ZM7.56517 26.3639H34.4348C34.1324 23.167 32.6804 20.4198 30.0787 18.1221C27.477 15.8245 24.4508 14.677 21 14.6796C17.5492 14.6822 14.5249 15.8297 11.9271 18.1221C9.32934 20.4146 7.87536 23.1618 7.56517 26.3639Z" fill="#FF8036"/>
</svg>
