<svg width="16" height="16" viewBox="0 0 16 16" fill="none" xmlns="http://www.w3.org/2000/svg">
<g clip-path="url(#clip0_2333_2639)">
<path d="M7.98453 13.7644C5.78078 13.7644 3.57703 13.7644 1.37328 13.7644C1.05078 13.7644 0.988281 13.7027 0.988281 13.3844C0.988281 9.13773 0.988281 4.89148 0.988281 0.644818C0.988281 0.336484 1.0537 0.271484 1.36453 0.271484C5.77745 0.271484 10.1899 0.271484 14.6029 0.271484C14.9145 0.271484 14.9804 0.336068 14.9804 0.643568C14.9804 4.89523 14.9804 9.1469 14.9804 13.3986C14.9804 13.6965 14.912 13.764 14.612 13.7644C12.4029 13.7644 10.1941 13.7644 7.98495 13.7644H7.98453ZM7.9762 13.2461C10.0658 13.2461 12.1554 13.2461 14.2449 13.2461C14.3888 13.2461 14.4609 13.1752 14.4612 13.0336C14.4612 9.02065 14.4612 5.00773 14.4612 0.994818C14.4612 0.790651 14.4604 0.790234 14.2524 0.790234C10.0733 0.790234 5.8937 0.790234 1.71453 0.790234C1.50661 0.790234 1.50578 0.790651 1.50578 0.994818C1.50578 5.00773 1.50578 9.02065 1.50578 13.0336C1.50578 13.175 1.57786 13.2458 1.72203 13.2461C3.80661 13.2461 5.89078 13.2461 7.97536 13.2461H7.9762Z" fill="#FF8036"/>
<path d="M7.98554 15.7591C5.53262 15.7591 3.07929 15.7591 0.626372 15.7591C0.303872 15.7591 0.241372 15.697 0.240955 15.3795C0.240955 15.0987 0.238872 14.8182 0.241789 14.5374C0.243872 14.3328 0.332622 14.2474 0.539705 14.2432C0.648872 14.2412 0.758039 14.2428 0.867205 14.2428C5.66971 14.2428 10.4718 14.2428 15.2743 14.2428C15.3368 14.2428 15.3993 14.2412 15.4614 14.2441C15.6297 14.252 15.7255 14.3395 15.7276 14.5057C15.7322 14.8382 15.7326 15.1712 15.7276 15.5037C15.7251 15.6607 15.6289 15.7487 15.4701 15.7582C15.413 15.7616 15.356 15.7595 15.2985 15.7595C12.861 15.7595 10.4235 15.7595 7.98595 15.7595L7.98554 15.7591ZM7.99387 14.7612C5.67054 14.7612 3.34679 14.7612 1.02346 14.7612C0.971372 14.7612 0.918872 14.757 0.867622 14.7637C0.834705 14.7682 0.778038 14.7878 0.777205 14.8037C0.768455 14.932 0.755955 15.0641 0.779705 15.1882C0.785539 15.2187 0.921789 15.2391 0.998455 15.2391C5.65595 15.2416 10.3135 15.2412 14.971 15.2412C15.0176 15.2412 15.0651 15.2441 15.111 15.2382C15.1397 15.2345 15.1901 15.2187 15.191 15.2053C15.2001 15.077 15.2164 14.9453 15.1943 14.8207C15.1889 14.7895 15.0551 14.7637 14.9801 14.7637C12.6514 14.7607 10.3226 14.7612 7.99387 14.7612Z" fill="#FF8036"/>
<path d="M7.97549 12.7666C6.10424 12.7666 4.23341 12.7666 2.36216 12.7666C2.05216 12.7666 1.98633 12.7012 1.98633 12.3929C1.98633 8.81161 1.98633 5.23078 1.98633 1.64953C1.98633 1.3312 2.04883 1.26953 2.37133 1.26953C6.11341 1.26953 9.85591 1.26953 13.598 1.26953C13.9197 1.26953 13.9817 1.3312 13.9817 1.65078C13.9817 5.23203 13.9817 8.81286 13.9817 12.3941C13.9817 12.7012 13.9159 12.7662 13.6042 12.7662C11.728 12.7662 9.85174 12.7662 7.97549 12.7662V12.7666ZM2.50466 7.00286C2.50466 8.68703 2.50633 10.3712 2.50174 12.0554C2.50174 12.2029 2.54091 12.252 2.69383 12.2516C4.13883 12.2466 5.58383 12.2462 7.02883 12.2516C7.18924 12.2524 7.22924 12.2024 7.22883 12.0474C7.22466 8.69453 7.22466 5.34203 7.22883 1.98911C7.22883 1.83411 7.18966 1.78411 7.02883 1.78453C5.58883 1.79036 4.14924 1.78786 2.70924 1.78828C2.50508 1.78828 2.50466 1.78911 2.50466 1.99703C2.50466 3.66578 2.50466 5.33411 2.50466 7.00286ZM13.4638 7.03036C13.4638 5.3512 13.4638 3.67245 13.4638 1.99328C13.4638 1.78911 13.463 1.7887 13.2551 1.7887C11.8205 1.7887 10.3859 1.7887 8.95091 1.7887C8.74299 1.7887 8.74216 1.78911 8.74216 1.99328C8.74216 5.34078 8.74216 8.68828 8.74216 12.0362C8.74216 12.1776 8.81424 12.2484 8.95841 12.2487C10.388 12.2487 11.8176 12.2487 13.2467 12.2487C13.3906 12.2487 13.4627 12.1779 13.463 12.0362C13.463 10.3674 13.463 8.69911 13.463 7.03036H13.4638ZM7.74424 7.01078C7.74424 8.67411 7.74424 10.3374 7.74424 12.0008C7.74424 12.0529 7.74091 12.1054 7.74758 12.1566C7.75133 12.1841 7.77216 12.2308 7.78716 12.2316C7.91591 12.2387 8.04758 12.252 8.17174 12.2274C8.20216 12.2216 8.22174 12.0849 8.22174 12.0083C8.22424 8.68161 8.22383 5.35453 8.22383 2.02786C8.22383 1.9812 8.22674 1.9337 8.22091 1.88786C8.21716 1.85911 8.20091 1.80911 8.18758 1.80828C8.05924 1.79911 7.92716 1.7837 7.80299 1.80578C7.77174 1.8112 7.74674 1.94536 7.74633 2.02036C7.74299 3.6837 7.74383 5.34703 7.74383 7.01036L7.74424 7.01078Z" fill="#FF8036"/>
<path d="M3.41854 7.20287C3.36812 7.15745 3.32479 7.12245 3.28604 7.08245C3.0052 6.7937 2.99854 6.87703 3.28104 6.5937C4.23729 5.63412 5.19645 4.67745 6.15437 3.71953C6.25465 3.61925 6.35548 3.61953 6.45687 3.72037C6.60909 3.87203 6.60979 4.02328 6.45895 4.17412C5.4902 5.14287 4.52104 6.11203 3.55187 7.08078C3.51229 7.12037 3.46937 7.1562 3.41854 7.20287Z" fill="#FF8036"/>
<path d="M3.42172 10.4509C3.37422 10.4075 3.33172 10.3721 3.29297 10.3325C3.04922 10.0838 3.04589 10.0796 3.29672 9.8467C4.26672 8.94587 5.24047 8.04878 6.21047 7.14795C6.29797 7.0667 6.36089 7.0742 6.42505 7.1667C6.43672 7.18378 6.45089 7.1992 6.46464 7.21462C6.60547 7.37434 6.59852 7.52573 6.4438 7.66878C5.47589 8.5642 4.50797 9.45962 3.53964 10.3546C3.5063 10.3855 3.4688 10.4121 3.42214 10.4505L3.42172 10.4509Z" fill="#FF8036"/>
<path d="M12.9087 3.93973C12.8707 3.98598 12.8478 4.02015 12.8191 4.0489C11.7978 5.07098 10.7753 6.09223 9.75533 7.11598C9.67783 7.1939 9.62616 7.19181 9.55199 7.1139C9.22908 6.7739 9.22908 6.88306 9.54241 6.56848C10.4882 5.61765 11.4382 4.67098 12.3866 3.72265C12.4896 3.61959 12.5942 3.62112 12.7003 3.72723C12.7691 3.79598 12.8362 3.86598 12.9087 3.93973Z" fill="#FF8036"/>
<path d="M12.8965 7.44544C12.8648 7.48169 12.8407 7.51502 12.8111 7.54252C12.0603 8.23669 11.3082 8.93002 10.5573 9.62461C10.3057 9.85711 10.054 10.09 9.80735 10.3279C9.70443 10.4271 9.63068 10.4534 9.51818 10.3271C9.29526 10.0763 9.2836 10.0792 9.52651 9.85377C10.4969 8.95294 11.4703 8.05586 12.4403 7.15461C12.5319 7.06961 12.594 7.07252 12.6669 7.17044C12.7165 7.23669 12.779 7.29294 12.8336 7.35544C12.8565 7.38169 12.8736 7.41252 12.8969 7.44627L12.8965 7.44544Z" fill="#FF8036"/>
</g>
<defs>
<clipPath id="clip0_2333_2639">
<rect width="16" height="16" fill="white"/>
</clipPath>
</defs>
</svg>
